<svg width="63" height="47" viewBox="0 0 63 47" fill="none" xmlns="http://www.w3.org/2000/svg">
<path d="M4.62367 39.7026L4.62332 39.7208L4.6243 39.739C4.63231 39.8882 4.60374 40.0385 4.53887 40.1794C4.4762 40.3155 4.38034 40.4412 4.25494 40.546C3.87949 40.8002 3.41136 40.9274 2.93463 40.8979L2.91918 40.8969H2.90369H0.5V35.7055H0.851091V36.1764V37.8006V38.1868V38.3006V38.6868V40.3897V40.8897H1.35109H2.63052C3.01895 40.9073 3.40644 40.8053 3.73121 40.5942L3.45866 40.175L3.76973 40.5664C3.92654 40.4418 4.05367 40.2826 4.13757 40.099C4.21703 39.925 4.25476 39.7354 4.24669 39.5441C4.25346 39.3517 4.21437 39.1613 4.13363 38.9869C4.10419 38.9233 4.06962 38.8626 4.03045 38.8053C4.16735 38.8712 4.28729 38.9606 4.38313 39.0673C4.54666 39.2533 4.62797 39.4783 4.62367 39.7026ZM2.95795 35.7011C3.37941 35.6918 3.79039 35.8065 4.12962 36.0245C4.24626 36.1171 4.33529 36.2295 4.39339 36.3515C4.45362 36.478 4.47996 36.6132 4.47241 36.7471L4.47093 36.7734L4.47222 36.7997C4.48236 37.0072 4.41264 37.2173 4.26494 37.3927C4.18046 37.4856 4.07534 37.5641 3.95529 37.6227C3.97392 37.5889 3.99098 37.5541 4.00638 37.5184C4.0787 37.3508 4.11159 37.1693 4.1017 36.9868C4.10919 36.8077 4.07628 36.6299 4.00608 36.4651C3.93058 36.2879 3.81472 36.132 3.67018 36.007L3.64819 35.9879L3.62414 35.9716C3.42322 35.835 3.19543 35.7439 2.95795 35.7011ZM3.65903 37.9797C3.66683 37.9732 3.67456 37.9667 3.68221 37.96L3.6899 38.4687C3.5195 38.3602 3.33197 38.2818 3.13637 38.2352C3.30817 38.1857 3.47217 38.1097 3.62115 38.0082L3.64076 37.9949L3.65903 37.9797Z" fill="#AFB1B8" stroke="#AFB1B8"/>
<path d="M9.95281 39.2042L11.1055 40.8969H10.8414L9.40704 38.7036L9.36112 38.6333H9.50721C9.52609 38.6333 9.54495 38.6332 9.56377 38.6329L9.95281 39.2042ZM7.89397 38.1369L7.89636 38.4772H7.89396V38.9772V40.8969H7.53296V35.7055H9.60961H9.62558L9.64151 35.7045C10.1667 35.6709 10.6807 35.8208 11.0809 36.115C11.3423 36.367 11.4926 36.6871 11.5173 37.0176C11.5421 37.3493 11.44 37.6836 11.2192 37.9629C11.0543 38.1314 10.8459 38.2638 10.6109 38.3476C10.6384 38.3288 10.6651 38.3088 10.6912 38.2877C11.0273 38.0159 11.1635 37.626 11.1666 37.2105C11.1765 37.0123 11.1424 36.8151 11.0674 36.6315C10.9905 36.4431 10.873 36.2748 10.7251 36.1358L10.7062 36.118L10.6855 36.1022C10.3454 35.8432 9.91649 35.72 9.48894 35.749H8.38075H7.87723L7.88076 36.2525L7.89397 38.1369Z" fill="#AFB1B8" stroke="#AFB1B8"/>
<path d="M18.4781 39.9745L18.3562 39.6506H18.3475L18.1143 39.0357L17.1233 36.4224L16.8778 35.7749H17.0886L19.1642 40.8968H18.8253L18.4781 39.9745ZM14.9641 39.6506H14.9546L14.8314 39.9713L14.4756 40.8968H14.1353L16.2192 35.7749H16.4338L16.1883 36.4224L15.1973 39.0357L14.9641 39.6506Z" fill="#AFB1B8" stroke="#AFB1B8"/>
<path d="M22.4421 37.1866V40.8969H22.0943V35.7054H22.4421V37.1866ZM23.348 36.8946L22.4924 35.7054H22.685L25.5646 39.7309L26.3988 40.8969H26.2275L23.348 36.8946ZM26.4713 39.44V35.7054H26.8224V40.8969H26.4713V39.44Z" fill="#AFB1B8" stroke="#AFB1B8"/>
<path d="M31.9109 40.897H30.006V35.7055H31.9109V35.7056L31.9228 35.7053C32.506 35.6914 33.0826 35.8074 33.6028 36.0415C34.0299 36.239 34.3749 36.546 34.5993 36.9161C34.8345 37.3451 34.9556 37.8156 34.9556 38.2906C34.9556 38.7659 34.8344 39.2366 34.599 39.6656C34.3735 40.0397 34.0274 40.351 33.5986 40.5538C33.0816 40.7925 32.5057 40.9112 31.9229 40.8971L31.9229 40.897H31.9109ZM33.7988 40.1572L33.8268 40.1348L33.8514 40.1086C34.32 39.6088 34.5842 38.9637 34.5842 38.2891C34.5842 37.6145 34.32 36.9695 33.8514 36.4696L33.8268 36.4434L33.7988 36.421C33.2364 35.9715 32.5121 35.747 31.7816 35.7853H30.8571H30.3571V36.2853V40.293V40.793H30.8571H31.7816C32.5121 40.8312 33.2364 40.6067 33.7988 40.1572Z" fill="#AFB1B8" stroke="#AFB1B8"/>
<path d="M35.425 15.4968L35.4245 15.5074V15.518V29.5555C35.4019 29.5469 35.3787 29.5381 35.3551 29.529C34.8849 29.3492 34.2121 29.0821 33.4054 28.7344C31.7905 28.0383 29.6454 27.0218 27.5153 25.738C25.3813 24.4519 23.285 22.9109 21.7499 21.1724C20.2137 19.4328 19.2786 17.5417 19.362 15.5388L19.3624 15.5283L19.3624 15.5177L19.3562 1.48325C19.3789 1.4919 19.4022 1.50077 19.426 1.50987C19.8966 1.68961 20.5698 1.95656 21.3771 2.30416C22.9931 2.99997 25.1397 4.01609 27.271 5.29952C29.4062 6.5853 31.5035 8.12592 33.0389 9.86405C34.5753 11.6033 35.5099 13.4941 35.425 15.4968Z" fill="#AFB1B8" stroke="#AFB1B8"/>
<path d="M53.3745 25.1701C55.668 22.5584 58.6418 20.495 62.0399 19.179V22.6288C58.9983 22.9705 56.0591 23.8343 53.3745 25.1701Z" fill="#AFB1B8" stroke="#AFB1B8"/>
<path d="M62.04 17.1364C56.4273 19.1102 51.8049 22.9354 49.0923 27.8792C44.2231 31.7007 41.1854 37.1378 40.6596 43.0155C40.591 43.6088 40.5799 44.1967 40.5781 44.7609C39.853 45.0571 39.2553 45.2882 38.8251 45.4501C38.7925 45.4624 38.7609 45.4743 38.7303 45.4857V25.1939V25.1834L38.7298 25.1728C38.606 22.2453 39.9738 19.501 42.1818 17.0016C44.3888 14.5034 47.396 12.2961 50.4461 10.4593C53.4923 8.62481 56.5585 7.17323 58.8655 6.17973C60.0183 5.68329 60.9799 5.30194 61.6524 5.045C61.7949 4.99054 61.9244 4.94168 62.04 4.8985V17.1364Z" fill="#AFB1B8" stroke="#AFB1B8"/>
<path d="M47.1197 36.0131L46.6217 35.9681L47.1197 36.0131ZM47.1197 36.0131L46.6217 35.9685C46.6217 35.9684 46.6217 35.9684 46.6217 35.9683L47.1197 36.0131ZM47.21 32.6012C47.11 32.983 47.021 33.3671 46.9433 33.7531C47.1742 33.4413 47.4151 33.1351 47.666 32.8348C47.7625 32.4582 47.87 32.0838 47.9885 31.712C47.7194 32.0023 47.4599 32.2988 47.21 32.6012ZM43.264 43.6146C43.0896 43.6934 42.9182 43.7702 42.7498 43.8449C42.7406 44.0283 42.734 44.2131 42.7295 44.4005C42.8953 44.3276 43.0643 44.2526 43.2363 44.1754C43.2428 43.9861 43.2518 43.7996 43.264 43.6146Z" fill="#AFB1B8" stroke="#AFB1B8"/>
<path d="M48.7802 40.822C48.5237 39.2712 48.4649 37.6979 48.6055 36.1335L48.1075 36.0887L48.6056 36.1318C48.7751 34.173 49.2565 32.2468 50.035 30.414C53.3337 27.5584 57.5283 25.7171 62.0301 25.1493V25.1939V25.2045L62.0306 25.2151C62.1692 28.4873 60.4433 31.5311 57.7703 34.2541C55.2611 36.8102 51.9686 39.0297 48.7802 40.822Z" fill="#AFB1B8" stroke="#AFB1B8"/>
</svg>
